<svg xmlns="http://www.w3.org/2000/svg" width="1186" height="1341" viewBox="0 0 1186 1341">
  <title>Koğ Suit Otel Logo</title>
  <path d="M 1060.0 1200.0 L 1048.0 1207.0 L 1035.0 1225.0 L 1032.0 1235.0 L 1032.0 1256.0 L 1036.0 1268.0 L 1048.0 1283.0 L 1069.0 1293.0 L 1088.0 1295.0 L 1102.0 1293.0 L 1113.0 1289.0 L 1124.0 1279.0 L 1113.0 1266.0 L 1097.0 1275.0 L 1074.0 1275.0 L 1067.0 1272.0 L 1059.0 1265.0 L 1054.0 1253.0 L 1130.0 1252.0 L 1131.0 1237.0 L 1125.0 1219.0 L 1115.0 1207.0 L 1097.0 1198.0 L 1077.0 1196.0 Z M 1055.0 1231.0 L 1059.0 1224.0 L 1066.0 1218.0 L 1075.0 1214.0 L 1089.0 1214.0 L 1097.0 1217.0 L 1106.0 1226.0 L 1109.0 1237.0 L 1056.0 1238.0 Z M 973.0 1175.0 L 972.0 1197.0 L 957.0 1199.0 L 957.0 1215.0 L 970.0 1215.0 L 972.0 1217.0 L 972.0 1263.0 L 975.0 1279.0 L 985.0 1290.0 L 996.0 1294.0 L 1014.0 1294.0 L 1021.0 1292.0 L 1027.0 1288.0 L 1021.0 1273.0 L 1013.0 1276.0 L 1004.0 1276.0 L 1000.0 1274.0 L 995.0 1267.0 L 995.0 1217.0 L 998.0 1215.0 L 1020.0 1215.0 L 1021.0 1199.0 L 996.0 1198.0 L 995.0 1176.0 L 991.0 1174.0 Z M 875.0 1165.0 L 851.0 1171.0 L 837.0 1180.0 L 828.0 1189.0 L 816.0 1212.0 L 814.0 1239.0 L 818.0 1254.0 L 829.0 1273.0 L 842.0 1284.0 L 853.0 1290.0 L 867.0 1294.0 L 889.0 1295.0 L 905.0 1292.0 L 917.0 1287.0 L 936.0 1271.0 L 943.0 1260.0 L 948.0 1247.0 L 950.0 1228.0 L 947.0 1210.0 L 943.0 1200.0 L 929.0 1182.0 L 918.0 1174.0 L 905.0 1168.0 Z M 871.0 1186.0 L 892.0 1186.0 L 905.0 1191.0 L 918.0 1203.0 L 924.0 1214.0 L 926.0 1223.0 L 924.0 1247.0 L 913.0 1263.0 L 897.0 1273.0 L 876.0 1275.0 L 862.0 1271.0 L 848.0 1260.0 L 838.0 1241.0 L 837.0 1226.0 L 843.0 1207.0 L 853.0 1195.0 L 862.0 1189.0 Z M 1150.0 1161.0 L 1149.0 1164.0 L 1149.0 1291.0 L 1150.0 1293.0 L 1171.0 1293.0 L 1172.0 1162.0 L 1170.0 1160.0 Z M 902.0 763.0 L 873.0 780.0 L 843.0 792.0 L 781.0 808.0 L 739.0 823.0 L 702.0 844.0 L 667.0 872.0 L 700.0 878.0 L 698.0 876.0 L 726.0 855.0 L 759.0 839.0 L 781.0 831.0 L 837.0 817.0 L 862.0 807.0 L 864.0 810.0 Z M 948.0 734.0 L 926.0 771.0 L 892.0 812.0 L 894.0 815.0 L 882.0 841.0 L 862.0 875.0 L 839.0 908.0 L 816.0 935.0 L 790.0 960.0 L 761.0 983.0 L 724.0 1006.0 L 694.0 1020.0 L 665.0 1030.0 L 634.0 1037.0 L 606.0 1040.0 L 567.0 1040.0 L 566.0 1037.0 L 534.0 1042.0 L 493.0 1043.0 L 434.0 1036.0 L 407.0 1027.0 L 459.0 1045.0 L 503.0 1055.0 L 564.0 1062.0 L 626.0 1062.0 L 623.0 1060.0 L 654.0 1055.0 L 694.0 1043.0 L 740.0 1022.0 L 759.0 1010.0 L 765.0 1009.0 L 767.0 1005.0 L 769.0 1007.0 L 774.0 1005.0 L 770.0 1006.0 L 769.0 1004.0 L 806.0 976.0 L 841.0 941.0 L 865.0 911.0 L 885.0 881.0 L 914.0 826.0 L 938.0 766.0 Z M 192.0 533.0 L 192.0 559.0 L 195.0 591.0 L 197.0 599.0 L 194.0 599.0 L 215.0 635.0 L 236.0 663.0 L 224.0 625.0 L 220.0 598.0 L 219.0 601.0 L 216.0 599.0 Z M 827.0 510.0 L 828.0 514.0 L 832.0 517.0 L 913.0 518.0 L 920.0 512.0 L 920.0 508.0 L 914.0 503.0 L 833.0 503.0 L 829.0 505.0 Z M 267.0 507.0 L 268.0 515.0 L 273.0 518.0 L 353.0 518.0 L 358.0 516.0 L 360.0 512.0 L 359.0 506.0 L 355.0 503.0 L 272.0 503.0 Z M 624.0 502.0 L 555.0 572.0 L 553.0 571.0 L 552.0 516.0 L 554.0 511.0 L 528.0 538.0 L 531.0 539.0 L 531.0 596.0 L 509.0 619.0 L 507.0 618.0 L 506.0 562.0 L 483.0 586.0 L 485.0 587.0 L 485.0 764.0 L 483.0 766.0 L 496.0 771.0 L 507.0 779.0 L 507.0 654.0 L 639.0 516.0 L 637.0 516.0 Z M 485.0 550.0 L 437.0 501.0 L 258.0 688.0 L 277.0 703.0 L 281.0 696.0 L 437.0 533.0 L 457.0 552.0 L 469.0 567.0 Z M 711.0 482.0 L 702.0 483.0 L 531.0 660.0 L 531.0 792.0 L 528.0 792.0 L 553.0 809.0 L 553.0 671.0 L 558.0 665.0 L 671.0 784.0 L 692.0 772.0 L 575.0 649.0 L 575.0 647.0 L 590.0 632.0 L 713.0 760.0 L 711.0 763.0 L 733.0 753.0 L 737.0 753.0 L 607.0 617.0 L 607.0 613.0 L 668.0 550.0 L 671.0 550.0 L 670.0 548.0 L 684.0 533.0 L 687.0 534.0 L 686.0 531.0 L 717.0 498.0 L 718.0 489.0 L 716.0 485.0 Z M 82.0 480.0 L 78.0 517.0 L 78.0 575.0 L 89.0 652.0 L 92.0 652.0 L 90.0 655.0 L 92.0 665.0 L 91.0 660.0 L 93.0 659.0 L 103.0 687.0 L 125.0 731.0 L 150.0 767.0 L 170.0 789.0 L 197.0 813.0 L 211.0 829.0 L 210.0 827.0 L 212.0 826.0 L 242.0 846.0 L 286.0 867.0 L 353.0 887.0 L 401.0 906.0 L 470.0 953.0 L 487.0 962.0 L 484.0 964.0 L 551.0 958.0 L 541.0 957.0 L 510.0 948.0 L 489.0 938.0 L 436.0 901.0 L 401.0 881.0 L 376.0 871.0 L 312.0 852.0 L 275.0 838.0 L 229.0 811.0 L 201.0 789.0 L 177.0 765.0 L 159.0 743.0 L 143.0 719.0 L 129.0 693.0 L 115.0 657.0 L 107.0 628.0 L 109.0 623.0 L 98.0 598.0 L 87.0 554.0 L 81.0 501.0 Z M 877.0 435.0 L 873.0 431.0 L 867.0 431.0 L 828.0 442.0 L 819.0 447.0 L 818.0 453.0 L 821.0 457.0 L 828.0 458.0 L 873.0 445.0 L 877.0 441.0 Z M 309.0 437.0 L 310.0 442.0 L 315.0 446.0 L 353.0 457.0 L 366.0 458.0 L 369.0 454.0 L 369.0 448.0 L 365.0 444.0 L 335.0 435.0 L 314.0 431.0 Z M 944.0 390.0 L 962.0 444.0 L 967.0 476.0 L 969.0 473.0 L 996.0 527.0 L 994.0 496.0 L 988.0 465.0 L 989.0 463.0 L 991.0 464.0 Z M 874.0 352.0 L 871.0 349.0 L 865.0 349.0 L 804.0 384.0 L 794.0 392.0 L 795.0 400.0 L 797.0 402.0 L 804.0 402.0 L 854.0 373.0 L 874.0 359.0 Z M 314.0 350.0 L 312.0 354.0 L 313.0 360.0 L 378.0 400.0 L 385.0 403.0 L 392.0 401.0 L 394.0 397.0 L 393.0 392.0 L 383.0 384.0 L 324.0 349.0 L 318.0 348.0 Z M 384.0 491.0 L 384.0 510.0 L 389.0 488.0 L 401.0 458.0 L 417.0 431.0 L 435.0 408.0 L 450.0 393.0 L 479.0 371.0 L 511.0 354.0 L 553.0 341.0 L 574.0 338.0 L 614.0 338.0 L 651.0 345.0 L 684.0 357.0 L 706.0 369.0 L 734.0 390.0 L 760.0 417.0 L 779.0 444.0 L 796.0 480.0 L 803.0 506.0 L 800.0 474.0 L 789.0 439.0 L 776.0 412.0 L 761.0 390.0 L 743.0 370.0 L 715.0 347.0 L 678.0 326.0 L 641.0 314.0 L 605.0 309.0 L 582.0 309.0 L 556.0 312.0 L 518.0 322.0 L 492.0 334.0 L 457.0 358.0 L 430.0 385.0 L 408.0 417.0 L 390.0 460.0 Z M 797.0 308.0 L 789.0 310.0 L 757.0 343.0 L 755.0 351.0 L 758.0 355.0 L 766.0 355.0 L 800.0 320.0 L 801.0 312.0 Z M 388.0 309.0 L 386.0 312.0 L 386.0 318.0 L 390.0 324.0 L 418.0 353.0 L 423.0 356.0 L 428.0 356.0 L 432.0 352.0 L 431.0 344.0 L 401.0 312.0 L 395.0 308.0 Z M 755.0 240.0 L 750.0 238.0 L 746.0 239.0 L 738.0 250.0 L 706.0 309.0 L 707.0 317.0 L 715.0 319.0 L 720.0 315.0 L 756.0 249.0 L 757.0 245.0 Z M 669.0 238.0 L 662.0 239.0 L 658.0 247.0 L 648.0 285.0 L 648.0 293.0 L 653.0 297.0 L 657.0 297.0 L 662.0 293.0 L 673.0 250.0 L 673.0 242.0 Z M 432.0 240.0 L 430.0 244.0 L 431.0 250.0 L 464.0 311.0 L 472.0 319.0 L 479.0 318.0 L 482.0 313.0 L 481.0 308.0 L 443.0 240.0 L 439.0 238.0 Z M 517.0 238.0 L 514.0 241.0 L 513.0 246.0 L 522.0 277.0 L 525.0 293.0 L 529.0 297.0 L 535.0 297.0 L 539.0 293.0 L 539.0 285.0 L 527.0 240.0 L 521.0 237.0 Z M 845.0 223.0 L 887.0 262.0 L 906.0 284.0 L 916.0 299.0 L 920.0 298.0 L 950.0 323.0 L 985.0 358.0 L 1022.0 406.0 L 1038.0 432.0 L 1056.0 469.0 L 1074.0 522.0 L 1080.0 556.0 L 1080.0 622.0 L 1075.0 648.0 L 1073.0 647.0 L 1073.0 643.0 L 1073.0 679.0 L 1068.0 716.0 L 1062.0 743.0 L 1050.0 779.0 L 1033.0 815.0 L 1051.0 785.0 L 1076.0 729.0 L 1094.0 669.0 L 1105.0 612.0 L 1106.0 598.0 L 1106.0 602.0 L 1104.0 603.0 L 1103.0 566.0 L 1100.0 541.0 L 1091.0 501.0 L 1083.0 479.0 L 1081.0 466.0 L 1082.0 470.0 L 1080.0 471.0 L 1057.0 421.0 L 1030.0 379.0 L 1009.0 352.0 L 983.0 324.0 L 953.0 296.0 L 919.0 269.0 L 879.0 242.0 Z M 591.0 198.0 L 586.0 204.0 L 586.0 283.0 L 588.0 287.0 L 594.0 289.0 L 599.0 287.0 L 601.0 283.0 L 601.0 204.0 L 596.0 198.0 Z M 207.0 461.0 L 215.0 521.0 L 218.0 485.0 L 230.0 430.0 L 247.0 384.0 L 260.0 358.0 L 293.0 307.0 L 320.0 274.0 L 337.0 259.0 L 335.0 261.0 L 332.0 260.0 L 351.0 235.0 L 382.0 201.0 L 398.0 186.0 L 409.0 180.0 L 406.0 180.0 L 408.0 177.0 L 460.0 138.0 L 497.0 117.0 L 523.0 105.0 L 562.0 91.0 L 594.0 83.0 L 656.0 76.0 L 697.0 77.0 L 730.0 81.0 L 777.0 93.0 L 835.0 117.0 L 896.0 156.0 L 936.0 191.0 L 960.0 216.0 L 988.0 249.0 L 1005.0 273.0 L 1003.0 274.0 L 997.0 269.0 L 1018.0 289.0 L 1048.0 324.0 L 1074.0 364.0 L 1095.0 414.0 L 1085.0 377.0 L 1072.0 340.0 L 1060.0 312.0 L 1031.0 258.0 L 1008.0 224.0 L 979.0 188.0 L 947.0 155.0 L 911.0 124.0 L 881.0 102.0 L 839.0 76.0 L 797.0 55.0 L 759.0 40.0 L 719.0 28.0 L 674.0 19.0 L 619.0 13.0 L 589.0 13.0 L 603.0 13.0 L 604.0 15.0 L 546.0 24.0 L 503.0 38.0 L 482.0 48.0 L 466.0 52.0 L 469.0 51.0 L 470.0 53.0 L 430.0 77.0 L 398.0 102.0 L 352.0 150.0 L 312.0 208.0 L 232.0 363.0 L 223.0 383.0 L 208.0 427.0 L 206.0 426.0 L 206.0 422.0 Z M 760.0 64.0 L 757.0 66.0 L 723.0 58.0 L 689.0 55.0 L 642.0 55.0 L 618.0 57.0 L 571.0 66.0 L 516.0 84.0 L 459.0 113.0 L 419.0 140.0 L 375.0 177.0 L 333.0 223.0 L 331.0 222.0 L 348.0 193.0 L 368.0 166.0 L 387.0 144.0 L 417.0 115.0 L 450.0 90.0 L 471.0 77.0 L 522.0 54.0 L 570.0 41.0 L 607.0 37.0 L 639.0 37.0 L 704.0 47.0 Z" fill="#b89b6e" fill-rule="evenodd"/>
  <path d="M 655.0 1198.0 L 654.0 1292.0 L 675.0 1292.0 L 675.0 1199.0 Z M 535.0 1198.0 L 534.0 1259.0 L 537.0 1271.0 L 542.0 1280.0 L 553.0 1289.0 L 564.0 1293.0 L 585.0 1293.0 L 599.0 1287.0 L 605.0 1282.0 L 608.0 1283.0 L 608.0 1292.0 L 627.0 1292.0 L 627.0 1199.0 L 606.0 1199.0 L 606.0 1254.0 L 603.0 1263.0 L 591.0 1274.0 L 574.0 1276.0 L 561.0 1269.0 L 555.0 1256.0 L 555.0 1199.0 Z M 347.0 1198.0 L 329.0 1199.0 L 330.0 1208.0 L 327.0 1210.0 L 319.0 1203.0 L 308.0 1198.0 L 287.0 1197.0 L 271.0 1202.0 L 257.0 1213.0 L 250.0 1224.0 L 247.0 1236.0 L 247.0 1251.0 L 255.0 1270.0 L 270.0 1283.0 L 291.0 1289.0 L 312.0 1286.0 L 327.0 1276.0 L 328.0 1290.0 L 323.0 1302.0 L 312.0 1310.0 L 303.0 1312.0 L 283.0 1311.0 L 273.0 1308.0 L 261.0 1301.0 L 252.0 1315.0 L 253.0 1317.0 L 264.0 1323.0 L 280.0 1328.0 L 305.0 1329.0 L 328.0 1323.0 L 339.0 1314.0 L 347.0 1299.0 L 349.0 1287.0 L 349.0 1199.0 Z M 288.0 1215.0 L 305.0 1214.0 L 311.0 1216.0 L 324.0 1227.0 L 327.0 1233.0 L 327.0 1253.0 L 323.0 1260.0 L 311.0 1269.0 L 305.0 1271.0 L 292.0 1271.0 L 276.0 1263.0 L 269.0 1252.0 L 268.0 1237.0 L 270.0 1230.0 L 277.0 1221.0 Z M 163.0 1200.0 L 147.0 1210.0 L 140.0 1218.0 L 135.0 1228.0 L 132.0 1249.0 L 138.0 1269.0 L 150.0 1283.0 L 167.0 1292.0 L 186.0 1294.0 L 208.0 1289.0 L 221.0 1280.0 L 228.0 1271.0 L 233.0 1259.0 L 234.0 1236.0 L 228.0 1220.0 L 215.0 1206.0 L 201.0 1199.0 L 192.0 1197.0 L 174.0 1197.0 Z M 178.0 1214.0 L 193.0 1215.0 L 202.0 1220.0 L 208.0 1226.0 L 213.0 1238.0 L 213.0 1252.0 L 208.0 1264.0 L 200.0 1272.0 L 185.0 1277.0 L 167.0 1272.0 L 159.0 1264.0 L 154.0 1252.0 L 154.0 1237.0 L 158.0 1227.0 L 169.0 1217.0 Z M 706.0 1175.0 L 705.0 1198.0 L 690.0 1199.0 L 690.0 1215.0 L 705.0 1216.0 L 705.0 1265.0 L 708.0 1278.0 L 715.0 1287.0 L 727.0 1293.0 L 738.0 1294.0 L 751.0 1292.0 L 759.0 1287.0 L 753.0 1274.0 L 746.0 1277.0 L 736.0 1277.0 L 728.0 1271.0 L 726.0 1265.0 L 726.0 1217.0 L 728.0 1215.0 L 752.0 1215.0 L 753.0 1199.0 L 728.0 1199.0 L 726.0 1197.0 L 726.0 1175.0 Z M 17.0 1168.0 L 16.0 1291.0 L 38.0 1292.0 L 38.0 1260.0 L 56.0 1241.0 L 60.0 1239.0 L 103.0 1292.0 L 129.0 1292.0 L 75.0 1224.0 L 84.0 1212.0 L 126.0 1168.0 L 101.0 1168.0 L 40.0 1231.0 L 38.0 1230.0 L 38.0 1168.0 Z M 448.0 1168.0 L 431.0 1176.0 L 422.0 1186.0 L 418.0 1200.0 L 420.0 1215.0 L 427.0 1225.0 L 438.0 1232.0 L 456.0 1238.0 L 477.0 1242.0 L 488.0 1247.0 L 494.0 1254.0 L 494.0 1265.0 L 484.0 1274.0 L 461.0 1277.0 L 438.0 1271.0 L 423.0 1262.0 L 416.0 1279.0 L 426.0 1286.0 L 449.0 1293.0 L 475.0 1294.0 L 487.0 1292.0 L 499.0 1287.0 L 511.0 1276.0 L 516.0 1263.0 L 515.0 1247.0 L 509.0 1236.0 L 496.0 1228.0 L 448.0 1214.0 L 440.0 1205.0 L 440.0 1197.0 L 446.0 1189.0 L 459.0 1184.0 L 484.0 1185.0 L 503.0 1194.0 L 509.0 1183.0 L 510.0 1176.0 L 497.0 1170.0 L 478.0 1166.0 Z M 267.0 1159.0 L 268.0 1166.0 L 273.0 1175.0 L 279.0 1180.0 L 290.0 1184.0 L 308.0 1184.0 L 317.0 1181.0 L 325.0 1175.0 L 330.0 1165.0 L 330.0 1158.0 L 317.0 1159.0 L 315.0 1165.0 L 309.0 1171.0 L 294.0 1173.0 L 283.0 1166.0 L 281.0 1159.0 Z M 656.0 1158.0 L 651.0 1164.0 L 651.0 1172.0 L 655.0 1178.0 L 661.0 1181.0 L 668.0 1181.0 L 677.0 1175.0 L 678.0 1165.0 L 673.0 1158.0 L 669.0 1156.0 L 660.0 1156.0 Z M 552.0 15.0 L 493.0 23.0 L 442.0 36.0 L 403.0 50.0 L 366.0 67.0 L 318.0 95.0 L 288.0 116.0 L 249.0 148.0 L 210.0 187.0 L 174.0 232.0 L 153.0 264.0 L 128.0 312.0 L 113.0 348.0 L 99.0 390.0 L 89.0 432.0 L 83.0 480.0 L 84.0 521.0 L 90.0 562.0 L 100.0 599.0 L 126.0 657.0 L 162.0 709.0 L 208.0 754.0 L 244.0 779.0 L 279.0 796.0 L 308.0 806.0 L 395.0 828.0 L 433.0 843.0 L 463.0 861.0 L 513.0 899.0 L 543.0 917.0 L 580.0 932.0 L 603.0 938.0 L 618.0 939.0 L 622.0 942.0 L 599.0 950.0 L 561.0 959.0 L 520.0 964.0 L 470.0 965.0 L 424.0 959.0 L 388.0 950.0 L 355.0 938.0 L 318.0 920.0 L 286.0 900.0 L 244.0 866.0 L 219.0 841.0 L 203.0 820.0 L 178.0 799.0 L 152.0 771.0 L 131.0 743.0 L 116.0 718.0 L 101.0 686.0 L 92.0 661.0 L 92.0 657.0 L 99.0 689.0 L 114.0 733.0 L 126.0 762.0 L 152.0 811.0 L 170.0 839.0 L 205.0 884.0 L 230.0 911.0 L 270.0 947.0 L 302.0 971.0 L 345.0 998.0 L 388.0 1019.0 L 407.0 1026.0 L 439.0 1035.0 L 474.0 1040.0 L 540.0 1040.0 L 601.0 1028.0 L 638.0 1016.0 L 677.0 999.0 L 737.0 962.0 L 768.0 937.0 L 796.0 911.0 L 898.0 805.0 L 931.0 761.0 L 945.0 738.0 L 965.0 695.0 L 980.0 648.0 L 986.0 623.0 L 987.0 610.0 L 991.0 604.0 L 995.0 622.0 L 996.0 669.0 L 992.0 711.0 L 983.0 755.0 L 965.0 807.0 L 948.0 842.0 L 932.0 869.0 L 911.0 898.0 L 865.0 947.0 L 841.0 967.0 L 808.0 989.0 L 701.0 1042.0 L 664.0 1054.0 L 626.0 1061.0 L 680.0 1055.0 L 718.0 1047.0 L 770.0 1031.0 L 800.0 1019.0 L 833.0 1003.0 L 881.0 974.0 L 902.0 959.0 L 945.0 923.0 L 980.0 887.0 L 1011.0 848.0 L 1025.0 827.0 L 1043.0 791.0 L 1056.0 757.0 L 1066.0 717.0 L 1072.0 671.0 L 1072.0 638.0 L 1070.0 612.0 L 1061.0 566.0 L 1049.0 528.0 L 1031.0 490.0 L 1013.0 458.0 L 960.0 374.0 L 929.0 319.0 L 905.0 285.0 L 881.0 257.0 L 833.0 215.0 L 793.0 189.0 L 756.0 170.0 L 737.0 162.0 L 684.0 146.0 L 645.0 139.0 L 606.0 137.0 L 605.0 134.0 L 633.0 129.0 L 669.0 128.0 L 712.0 132.0 L 752.0 141.0 L 800.0 158.0 L 839.0 177.0 L 879.0 201.0 L 912.0 224.0 L 971.0 273.0 L 1008.0 310.0 L 1032.0 339.0 L 1052.0 369.0 L 1073.0 418.0 L 1079.0 440.0 L 1085.0 481.0 L 1095.0 509.0 L 1103.0 551.0 L 1105.0 598.0 L 1109.0 556.0 L 1107.0 496.0 L 1103.0 458.0 L 1094.0 416.0 L 1082.0 384.0 L 1061.0 345.0 L 1029.0 303.0 L 990.0 263.0 L 951.0 229.0 L 916.0 202.0 L 859.0 165.0 L 818.0 144.0 L 789.0 132.0 L 749.0 119.0 L 727.0 114.0 L 678.0 108.0 L 644.0 108.0 L 594.0 114.0 L 562.0 122.0 L 514.0 138.0 L 443.0 165.0 L 407.0 182.0 L 398.0 188.0 L 378.0 207.0 L 352.0 236.0 L 333.0 261.0 L 367.0 232.0 L 399.0 210.0 L 448.0 185.0 L 478.0 174.0 L 511.0 165.0 L 544.0 159.0 L 582.0 156.0 L 621.0 157.0 L 663.0 162.0 L 690.0 168.0 L 728.0 180.0 L 789.0 210.0 L 835.0 243.0 L 873.0 279.0 L 911.0 328.0 L 941.0 383.0 L 1008.0 490.0 L 1025.0 524.0 L 1038.0 560.0 L 1049.0 608.0 L 1052.0 664.0 L 1049.0 697.0 L 1044.0 724.0 L 1034.0 758.0 L 1019.0 793.0 L 1007.0 815.0 L 972.0 864.0 L 940.0 897.0 L 939.0 895.0 L 959.0 865.0 L 977.0 831.0 L 995.0 786.0 L 1010.0 728.0 L 1016.0 677.0 L 1016.0 632.0 L 1007.0 571.0 L 993.0 525.0 L 968.0 474.0 L 974.0 517.0 L 974.0 558.0 L 968.0 606.0 L 962.0 632.0 L 950.0 657.0 L 936.0 677.0 L 927.0 686.0 L 750.0 502.0 L 703.0 550.0 L 700.0 550.0 L 685.0 534.0 L 674.0 545.0 L 672.0 550.0 L 750.0 631.0 L 756.0 631.0 L 762.0 627.0 L 762.0 615.0 L 717.0 568.0 L 717.0 565.0 L 749.0 532.0 L 751.0 532.0 L 910.0 699.0 L 910.0 701.0 L 897.0 711.0 L 857.0 728.0 L 760.0 747.0 L 729.0 756.0 L 708.0 765.0 L 675.0 782.0 L 595.0 840.0 L 586.0 836.0 L 532.0 795.0 L 485.0 767.0 L 427.0 747.0 L 346.0 731.0 L 346.0 728.0 L 592.0 469.0 L 594.0 469.0 L 614.0 489.0 L 637.0 515.0 L 652.0 501.0 L 594.0 439.0 L 484.0 552.0 L 323.0 723.0 L 318.0 724.0 L 291.0 713.0 L 252.0 685.0 L 240.0 673.0 L 234.0 662.0 L 220.0 645.0 L 196.0 605.0 L 181.0 575.0 L 171.0 549.0 L 156.0 495.0 L 150.0 446.0 L 150.0 403.0 L 153.0 375.0 L 165.0 319.0 L 183.0 273.0 L 210.0 225.0 L 230.0 198.0 L 270.0 157.0 L 301.0 133.0 L 302.0 135.0 L 267.0 178.0 L 231.0 238.0 L 210.0 287.0 L 198.0 324.0 L 192.0 350.0 L 186.0 390.0 L 184.0 421.0 L 186.0 479.0 L 194.0 533.0 L 208.0 575.0 L 219.0 600.0 L 214.0 562.0 L 214.0 522.0 L 209.0 495.0 L 205.0 450.0 L 207.0 389.0 L 213.0 352.0 L 222.0 316.0 L 243.0 261.0 L 261.0 226.0 L 288.0 184.0 L 321.0 144.0 L 359.0 108.0 L 398.0 80.0 L 445.0 57.0 L 481.0 47.0 L 491.0 41.0 L 530.0 27.0 L 567.0 18.0 L 604.0 14.0 Z M 765.0 910.0 L 749.0 926.0 L 715.0 952.0 L 685.0 971.0 L 647.0 990.0 L 584.0 1011.0 L 552.0 1017.0 L 522.0 1020.0 L 487.0 1020.0 L 460.0 1017.0 L 431.0 1011.0 L 398.0 1000.0 L 360.0 982.0 L 328.0 963.0 L 274.0 921.0 L 275.0 919.0 L 330.0 950.0 L 385.0 971.0 L 441.0 983.0 L 474.0 986.0 L 510.0 986.0 L 561.0 980.0 L 601.0 971.0 L 639.0 959.0 L 703.0 933.0 L 733.0 923.0 L 763.0 909.0 Z M 935.0 710.0 L 921.0 738.0 L 897.0 773.0 L 880.0 794.0 L 841.0 833.0 L 800.0 864.0 L 758.0 878.0 L 737.0 881.0 L 712.0 881.0 L 654.0 870.0 L 630.0 861.0 L 616.0 853.0 L 619.0 848.0 L 670.0 810.0 L 711.0 786.0 L 732.0 777.0 L 765.0 767.0 L 802.0 759.0 L 833.0 755.0 L 877.0 743.0 L 903.0 731.0 L 932.0 709.0 Z M 131.0 360.0 L 133.0 358.0 L 135.0 359.0 L 129.0 408.0 L 131.0 467.0 L 138.0 509.0 L 150.0 553.0 L 172.0 605.0 L 186.0 631.0 L 212.0 671.0 L 234.0 697.0 L 270.0 725.0 L 308.0 743.0 L 354.0 755.0 L 413.0 765.0 L 469.0 783.0 L 506.0 803.0 L 570.0 851.0 L 589.0 863.0 L 632.0 884.0 L 670.0 896.0 L 721.0 902.0 L 722.0 904.0 L 693.0 914.0 L 658.0 920.0 L 625.0 920.0 L 610.0 918.0 L 574.0 908.0 L 538.0 890.0 L 487.0 852.0 L 463.0 836.0 L 437.0 822.0 L 388.0 804.0 L 332.0 791.0 L 285.0 776.0 L 242.0 753.0 L 205.0 724.0 L 168.0 683.0 L 147.0 651.0 L 123.0 600.0 L 108.0 544.0 L 105.0 519.0 L 105.0 468.0 L 107.0 451.0 L 117.0 403.0 Z" fill="#4a5240" fill-rule="evenodd"/>
</svg>
